<?xml version="1.0" encoding="utf-8"?>
<!-- Generator: Adobe Illustrator 27.3.1, SVG Export Plug-In . SVG Version: 6.00 Build 0)  -->
<svg version="1.1" id="Layer_1" xmlns="http://www.w3.org/2000/svg" xmlns:xlink="http://www.w3.org/1999/xlink" x="0px" y="0px"
	 viewBox="0 0 595.28 595.28" style="enable-background:new 0 0 595.28 595.28;" xml:space="preserve">
<style type="text/css">
	.st0{fill:#FFFFFF;stroke:#FFFFFF;stroke-width:1.7577;stroke-miterlimit:10;}
	.st1{fill:none;}
</style>
<g>
	<circle cx="267.9" cy="288.25" r="239.48"/>
	<g>
		<path class="st0" d="M397.27,386.73v11.53H277.56v-11.42h30.97v-8.59h-19.42v-9.28h19.42v-8.59h-19.42v-31.11
			c22.48-22.41,57.18-63.19,37.93-85.14c-27.44-31.32-54.87,0-54.87,0s-1.53-1.74-4.22-3.97c4.5-4.38,9.37-8.05,14.68-10.99
			c10.81-6.01,21.87-9.02,33.17-9.02c16.35,0,30.65,5.54,42.9,16.59c12.27,11.06,18.38,24.99,18.38,41.81v108.18H397.27z"/>
		<path class="st0" d="M268.91,386.73v11.53H147.03v-11.53h20.2V156.67h-20.2v-11.53h7.93c19.7,0,37.39-0.37,53.01-1.09
			c15.63-0.72,31.37-2.28,47.23-4.68v93.09c-10.32-4.01-24.12-4.11-37.93,11.65c-19.23,21.95,15.47,62.73,37.93,85.14v57.48H268.91z
			"/>
	</g>
</g>
</svg>
